REM DIRINDEX 1\2\5,1\2\6,1\2\7,1\2\8,1\3\9,1\3\10,1\3\11,1\4\12,1\4\13,1\4\14,1\4\15,1\4\16
REM DIRNAME cjc034,folder01,folder02,folder03,folder04,folder05,folder06,folder07,folder08,folder09,folder10,folder11,folder12,folder13,folder14,folder15
TITLE ""
FILE "1200_sec05_1623_1630.mp3" MP3
  TRACK 01 AUDIO
    TITLE "0:"
    INDEX 01 00:00:00
  TRACK 02 AUDIO
    TITLE "16:cjc034_10240"
    INDEX 01 00:00:17
  TRACK 03 AUDIO
    TITLE "0:"
    INDEX 01 00:01:24
  TRACK 04 AUDIO
    TITLE "12:cjc034_10241"
    INDEX 01 00:02:30
  TRACK 05 AUDIO
    TITLE "0:"
    INDEX 01 00:03:39
  TRACK 06 AUDIO
    TITLE "13:cjc034_10242"
    INDEX 01 00:03:70
  TRACK 07 AUDIO
    TITLE "0:"
    INDEX 01 00:05:30
  TRACK 08 AUDIO
    TITLE "14:cjc034_10243"
    INDEX 01 00:05:65
  TRACK 09 AUDIO
    TITLE "0:"
    INDEX 01 00:06:73
  TRACK 10 AUDIO
    TITLE "15:cjc034_10244"
    INDEX 01 00:07:31
  TRACK 11 AUDIO
    TITLE "0:"
    INDEX 01 00:11:42
  TRACK 12 AUDIO
    TITLE "12:cjc034_10245"
    INDEX 01 00:13:00
  TRACK 13 AUDIO
    TITLE "0:"
    INDEX 01 00:14:11
  TRACK 14 AUDIO
    TITLE "13:cjc034_10246"
    INDEX 01 00:14:45
  TRACK 15 AUDIO
    TITLE "0:"
    INDEX 01 00:18:39
  TRACK 16 AUDIO
    TITLE "14:cjc034_10247"
    INDEX 01 00:18:72
  TRACK 17 AUDIO
    TITLE "0:"
    INDEX 01 00:20:06
  TRACK 18 AUDIO
    TITLE "15:cjc034_10248"
    INDEX 01 00:20:43
  TRACK 19 AUDIO
    TITLE "0:"
    INDEX 01 00:24:00
  TRACK 20 AUDIO
    TITLE "12:cjc034_10249"
    INDEX 01 00:25:35
  TRACK 21 AUDIO
    TITLE "0:"
    INDEX 01 00:26:52
  TRACK 22 AUDIO
    TITLE "13:cjc034_10250"
    INDEX 01 00:27:10
  TRACK 23 AUDIO
    TITLE "0:"
    INDEX 01 00:29:03
  TRACK 24 AUDIO
    TITLE "14:cjc034_10251"
    INDEX 01 00:29:34
  TRACK 25 AUDIO
    TITLE "0:"
    INDEX 01 00:30:54
  TRACK 26 AUDIO
    TITLE "15:cjc034_10252"
    INDEX 01 00:31:10
  TRACK 27 AUDIO
    TITLE "0:"
    INDEX 01 00:34:30
  TRACK 28 AUDIO
    TITLE "12:cjc034_10253"
    INDEX 01 00:35:63
  TRACK 29 AUDIO
    TITLE "0:"
    INDEX 01 00:36:72
  TRACK 30 AUDIO
    TITLE "13:cjc034_10254"
    INDEX 01 00:37:30
  TRACK 31 AUDIO
    TITLE "0:"
    INDEX 01 00:40:46
  TRACK 32 AUDIO
    TITLE "14:cjc034_10255"
    INDEX 01 00:41:04
  TRACK 33 AUDIO
    TITLE "0:"
    INDEX 01 00:42:16
  TRACK 34 AUDIO
    TITLE "15:cjc034_10256"
    INDEX 01 00:42:47
  TRACK 35 AUDIO
    TITLE "0:"
    INDEX 01 00:47:66
  TRACK 36 AUDIO
    TITLE "12:cjc034_10257"
    INDEX 01 00:49:25
  TRACK 37 AUDIO
    TITLE "0:"
    INDEX 01 00:50:48
  TRACK 38 AUDIO
    TITLE "13:cjc034_10258"
    INDEX 01 00:51:07
  TRACK 39 AUDIO
    TITLE "0:"
    INDEX 01 00:52:41
  TRACK 40 AUDIO
    TITLE "14:cjc034_10259"
    INDEX 01 00:52:73
  TRACK 41 AUDIO
    TITLE "0:"
    INDEX 01 00:54:23
  TRACK 42 AUDIO
    TITLE "15:cjc034_10260"
    INDEX 01 00:54:54
  TRACK 43 AUDIO
    TITLE "0:"
    INDEX 01 01:00:31
  TRACK 44 AUDIO
    TITLE "12:cjc034_10261"
    INDEX 01 01:01:64
  TRACK 45 AUDIO
    TITLE "0:"
    INDEX 01 01:02:63
  TRACK 46 AUDIO
    TITLE "13:cjc034_10262"
    INDEX 01 01:03:26
  TRACK 47 AUDIO
    TITLE "0:"
    INDEX 01 01:04:27
  TRACK 48 AUDIO
    TITLE "14:cjc034_10263"
    INDEX 01 01:04:62
  TRACK 49 AUDIO
    TITLE "0:"
    INDEX 01 01:05:60
  TRACK 50 AUDIO
    TITLE "15:cjc034_10264"
    INDEX 01 01:06:20
  TRACK 51 AUDIO
    TITLE "0:"
    INDEX 01 01:08:60
  TRACK 52 AUDIO
    TITLE "12:cjc034_10265"
    INDEX 01 01:10:22
  TRACK 53 AUDIO
    TITLE "0:"
    INDEX 01 01:11:43
  TRACK 54 AUDIO
    TITLE "13:cjc034_10266"
    INDEX 01 01:11:74
  TRACK 55 AUDIO
    TITLE "0:"
    INDEX 01 01:12:71
  TRACK 56 AUDIO
    TITLE "14:cjc034_10267"
    INDEX 01 01:13:28
  TRACK 57 AUDIO
    TITLE "0:"
    INDEX 01 01:14:49
  TRACK 58 AUDIO
    TITLE "15:cjc034_10268"
    INDEX 01 01:15:05
  TRACK 59 AUDIO
    TITLE "0:"
    INDEX 01 01:18:72
  TRACK 60 AUDIO
    TITLE "12:cjc034_10269"
    INDEX 01 01:20:30
  TRACK 61 AUDIO
    TITLE "0:"
    INDEX 01 01:21:61
  TRACK 62 AUDIO
    TITLE "13:cjc034_10270"
    INDEX 01 01:22:19
  TRACK 63 AUDIO
    TITLE "0:"
    INDEX 01 01:25:64
  TRACK 64 AUDIO
    TITLE "14:cjc034_10271"
    INDEX 01 01:26:19
  TRACK 65 AUDIO
    TITLE "0:"
    INDEX 01 01:27:50
  TRACK 66 AUDIO
    TITLE "15:cjc034_10272"
    INDEX 01 01:28:08
  TRACK 67 AUDIO
    TITLE "0:"
    INDEX 01 01:31:45
